Coordinates
version=1
nRows=7
nColumns=40
inDegrees=yes

Units are S.I. units (second, meters, Newtons, ...)
Angles are in degrees.

endheader
time	pelvis_tilt	pelvis_list	pelvis_rotation	pelvis_tx	pelvis_ty	pelvis_tz	hip_flexion_r	hip_adduction_r	hip_rotation_r	knee_angle_r	knee_angle_r_beta	ankle_angle_r	subtalar_angle_r	mtp_angle_r	hip_flexion_l	hip_adduction_l	hip_rotation_l	knee_angle_l	knee_angle_l_beta	ankle_angle_l	subtalar_angle_l	mtp_angle_l	lumbar_extension	lumbar_bending	lumbar_rotation	arm_flex_r	arm_add_r	arm_rot_r	elbow_flex_r	pro_sup_r	wrist_flex_r	wrist_dev_r	arm_flex_l	arm_add_l	arm_rot_l	elbow_flex_l	pro_sup_l	wrist_flex_l	wrist_dev_l
     55.25000000	     -5.52470141	     -5.36596990	      0.79523700	      1.13238516	      0.91911202	      0.40167095	     17.90333507	     -7.33707632	     -4.98598393	     49.84045021	     49.84045021	      3.22754906	     -8.62175190	    -17.91882829	     23.12983580	     -5.45251685	     -1.64701935	     31.05162539	     31.05162539	     15.57635894	    -15.11434218	      4.87947992	    -10.16418412	      5.76872687	      4.24948352	     25.36572686	    -13.31877821	     -6.62920500	     35.93059987	     45.54052448	      0.00000000	      0.00000000	     12.96190476	    -15.93796314	     15.16186321	     33.24950840	     44.94776820	      0.00000000	      0.00000000
     55.27242857	     -5.06574735	     -5.43478552	      0.17821870	      1.13209484	      0.91729715	      0.39755295	     20.54357413	     -7.40409037	     -3.56276635	     54.49482143	     54.49482143	      0.90308962	    -10.86803078	    -16.94627858	     22.86302026	     -5.36895552	     -1.86816946	     32.27842524	     32.27842524	     16.34008148	    -15.80935323	      4.64822974	    -10.55005200	      6.13784152	      3.74374397	     21.62986053	    -12.72887520	     -6.46100469	     33.98379006	     45.58767770	      0.00000000	      0.00000000	     15.14162205	    -16.33300479	     14.85195840	     34.26060446	     45.02990758	      0.00000000	      0.00000000
     55.29485714	     -4.54560990	     -5.56121913	     -0.45312695	      1.13184299	      0.91567674	      0.39348449	     22.94793144	     -7.27338760	     -2.25828407	     58.54878768	     58.54878768	     -0.98018720	    -12.68181824	    -14.91925891	     22.46448921	     -5.34579472	     -2.11994916	     33.43097567	     33.43097567	     17.21876588	    -16.37681683	      4.62214344	    -11.03802007	      6.56516931	      3.50799907	     17.77893559	    -12.41329253	     -6.25178329	     31.62066989	     45.65094692	      0.00000000	      0.00000000	     17.63343787	    -16.67627970	     14.43027058	     35.36270160	     45.13470931	      0.00000000	      0.00000000
     55.31728571	     -4.12612407	     -5.53161691	     -1.13330342	      1.13141802	      0.91420823	      0.38952543	     25.29677670	     -7.30316948	     -1.15086685	     61.88924901	     61.88924901	     -2.46086190	    -13.93655262	    -13.06900085	     22.03354846	     -5.17511882	     -2.54895468	     34.32580074	     34.32580074	     17.97955397	    -16.83430167	      4.59331463	    -11.51066618	      6.82947393	      3.01047197	     14.13079788	    -12.05050649	     -6.07468739	     29.51937586	     45.70359043	      0.00000000	      0.00000000	     20.06990839	    -17.20135943	     13.96024160	     36.35245829	     45.23705396	      0.00000000	      0.00000000
     55.33971429	     -3.67425652	     -5.69067380	     -1.78795340	      1.13103452	      0.91344571	      0.38595122	     27.46513001	     -7.08281991	     -0.39061260	     64.70964067	     64.70964067	     -0.95383951	    -13.19062007	     -4.27765006	     21.49549092	     -5.20693775	     -2.90897538	     35.12385966	     35.12385966	     19.31848384	    -16.91321311	      6.12319727	    -12.00104098	      7.29799367	      2.79527272	     10.89874128	    -11.83745888	     -5.92785940	     25.87026542	     45.87956282	      0.00000000	      0.00000000	     22.81651189	    -17.33060453	     12.43533193	     36.74665214	     45.52347957	      0.00000000	      0.00000000
     55.36214286	     -3.45811381	     -5.68027933	     -2.53257260	      1.13045451	      0.91307667	      0.38285459	     29.35677245	     -6.95265681	      0.26498196	     65.92648989	     65.92648989	     -1.69628930	    -14.19242803	     -3.64481235	     20.94295532	     -5.12014594	     -3.50997151	     35.34957552	     35.34957552	     19.74502660	    -17.13043168	      6.07259083	    -12.31409632	      7.55664127	      2.49772170	      7.30035606	    -11.75213480	     -5.89776368	     24.18555544	     45.92766349	      0.00000000	      0.00000000	     25.17326646	    -17.94539563	     11.78053310	     38.11275589	     45.64439800	      0.00000000	      0.00000000
     55.38457143	     -3.27166304	     -5.78437816	     -3.30297293	      1.12985362	      0.91349368	      0.38043471	     30.89461401	     -6.73659566	      0.48830073	     66.05401155	     66.05401155	     -1.79183703	    -14.78450208	     -3.13279591	     20.21844773	     -5.19396073	     -4.15555899	     35.20297699	     35.20297699	     20.15046390	    -17.23222842	      6.14445379	    -12.63674040	      7.87524335	      2.33840649	      3.88061340	    -11.76771304	     -5.90954077	     22.70340430	     45.97575394	      0.00000000	      0.00000000	     27.46718462	    -18.53164617	     10.90138534	     39.58590758	     45.78841629	      0.00000000	      0.00000000
